<?xml version="1.0" encoding="UTF-8"?>
<svg width="14px" height="14px" viewBox="0 0 14 14" version="1.1" xmlns="http://www.w3.org/2000/svg" xmlns:xlink="http://www.w3.org/1999/xlink">
    <!-- Generator: Sketch 48.1 (47250) - http://www.bohemiancoding.com/sketch -->
    <title>设置 设定 配置 扳手</title>
    <desc>Created with Sketch.</desc>
    <defs></defs>
    <g id="A-1-1-任务详情-处置操作" stroke="none" stroke-width="1" fill="none" fill-rule="evenodd" transform="translate(-1109.000000, -587.000000)">
        <g id="设置-设定-配置-扳手" transform="translate(1109.000000, 587.000000)" fill="#898989" fill-rule="nonzero">
            <path d="M13.911395,4.43292084 C13.82347,3.95992929 13.2189851,3.78393243 12.8782754,4.12492634 L9.98773867,7.00687488 C9.58108522,7.41386761 8.91065654,7.41386761 8.49301245,7.00687488 L7.00927685,5.52190139 C6.59163276,5.10390886 6.59163276,4.44392064 7.00927685,4.03692791 L9.92179487,1.13297977 C10.2625045,0.791985857 10.097645,0.186996661 9.62504775,0.0989982322 C7.92149948,-0.230995875 6.09705423,0.263995286 4.77817814,1.58397171 C3.31642382,3.02494598 2.86580782,5.10390886 3.42633016,6.95187586 C3.51425523,7.24887056 3.45930206,7.57886466 3.23948938,7.79886073 L0.304990094,10.7248085 C-0.101663365,11.1318012 -0.101663365,11.8027892 0.304990094,12.209782 L1.79971632,13.6947555 C2.20636978,14.1017482 2.87679846,14.1017482 3.29444255,13.6947555 L6.2509231,10.7468081 C6.47073579,10.526812 6.78946417,10.4608132 7.09720192,10.5488116 C8.93263781,11.087802 10.9878864,10.6368101 12.4386501,9.18483599 C13.7245542,7.89785897 14.2191328,6.10489098 13.911395,4.43292084 Z" id="Shape"></path>
        </g>
    </g>
</svg>