<?xml version="1.0" encoding="UTF-8"?>
<svg width="38px" height="38px" viewBox="0 0 38 38" version="1.1" xmlns="http://www.w3.org/2000/svg" xmlns:xlink="http://www.w3.org/1999/xlink">
    <!-- Generator: Sketch 48.1 (47250) - http://www.bohemiancoding.com/sketch -->
    <title>感叹号</title>
    <desc>Created with Sketch.</desc>
    <defs>
        <filter x="-23.3%" y="-16.7%" width="146.7%" height="146.7%" filterUnits="objectBoundingBox" id="filter-1">
            <feOffset dx="0" dy="2" in="SourceAlpha" result="shadowOffsetOuter1"></feOffset>
            <feGaussianBlur stdDeviation="2" in="shadowOffsetOuter1" result="shadowBlurOuter1"></feGaussianBlur>
            <feColorMatrix values="0 0 0 0 0.927508503   0 0 0 0 0.635722467   0 0 0 0 0.635722467  0 0 0 0.5 0" type="matrix" in="shadowBlurOuter1" result="shadowMatrixOuter1"></feColorMatrix>
            <feMerge>
                <feMergeNode in="shadowMatrixOuter1"></feMergeNode>
                <feMergeNode in="SourceGraphic"></feMergeNode>
            </feMerge>
        </filter>
    </defs>
    <g id="C-2-2-2-删除-失败" stroke="none" stroke-width="1" fill="none" fill-rule="evenodd" transform="translate(-766.000000, -412.000000)">
        <g id="Group-5" transform="translate(732.000000, 395.000000)" fill="#FF5661" fill-rule="nonzero">
            <g id="Group">
                <g id="感叹号" filter="url(#filter-1)" transform="translate(38.000000, 19.000000)">
                    <path d="M15,22.9411762 C14.5319765,22.9414384 14.0830349,22.7654329 13.7520433,22.4519205 C13.4210517,22.1384081 13.2351557,21.7131007 13.2352942,21.2696616 C13.2352942,20.3463732 14.0252632,19.5979001 14.9997393,19.5979001 C15.9742154,19.5979001 16.7641844,20.3463732 16.7641844,21.2696616 C16.7643228,21.713015 16.5784983,22.1382475 16.2476196,22.4517457 C15.9167408,22.7652439 15.4679332,22.9413073 15,22.9411762 Z M15,17.9261385 C14.5124114,17.9261385 14.1176471,17.1780826 14.1176471,16.2536358 L13.2358157,8.73058511 C13.2358157,7.80729668 14.0257847,7.05882353 15.0002608,7.05882353 C15.9747369,7.05882353 16.7647059,7.80729668 16.7647059,8.73058511 L15.8828744,16.2536358 C15.8818315,17.1780826 15.4870672,17.9261385 15,17.9261385 Z" id="Shape"></path>
                    <path d="M29.9999903,15.0000009 C30.0045101,11.020873 28.4234267,7.2039274 25.6064955,4.39352027 C24.2400233,3.02396455 22.6209865,1.93232521 20.8390012,1.17902614 C18.9916583,0.397125903 17.0055064,-0.00387960038 14.9995081,2.82894953e-05 C12.9937341,-0.00375105922 11.0078037,0.39707401 9.16051503,1.17852614 C7.37852977,1.93182521 5.75949295,3.02346455 4.39302069,4.39302027 C3.02329734,5.75935406 1.93163397,7.37842444 1.17852449,9.16051157 C0.397111207,11.0079865 -0.00371108747,12.9940708 2.58916703e-05,15.0000009 C-0.00523474222,18.9791775 1.57575741,22.7963372 4.39302069,25.6064815 C5.75946504,26.976197 7.37850075,28.0680054 9.16051503,28.8214757 C11.0078037,29.6029278 12.9937341,30.0037529 14.9995081,29.9999735 C17.0245057,29.9999735 18.9890034,29.6034742 20.8390012,28.8214757 L21.014501,28.7454758 C21.7595001,28.4229764 22.4859992,28.0589771 23.1629984,27.6079779 C23.4086343,27.4458794 23.6459357,27.2714914 23.8739976,27.0854788 C24.2378147,26.7876598 24.2913167,26.2512979 23.9934975,25.887481 C23.6956783,25.5236641 23.159316,25.4701622 22.7954989,25.7679812 C22.6374991,25.896981 22.4719993,26.0189808 22.3034995,26.1329806 C20.6640014,27.2499785 18.6625038,27.9094773 16.7070061,28.1789768 C16.1413732,28.2572848 15.5710359,28.2967106 15.0000081,28.2969766 C11.4480123,28.2969766 8.10951628,26.9139792 5.59751926,24.4024837 C3.08602223,21.8904883 1.70252387,18.5519944 1.70252387,15.0000009 C1.70252387,11.4480074 3.08602223,8.10951348 5.59701926,5.59751807 C8.10851628,3.08602266 11.4475123,1.70302518 14.9995081,1.70302518 C18.5515039,1.70302518 21.8904999,3.08602266 24.402497,5.59751807 C26.913494,8.10901349 28.2969924,11.4480074 28.2969924,15.0000009 C28.2969924,15.9599992 28.1949925,16.9034974 27.9974927,17.8194958 C27.9889927,17.8489957 27.9824927,17.8789956 27.9769927,17.9094956 C27.794574,18.7262956 27.5493987,19.4855857 27.2369936,20.2179914 C27.2179936,20.2629913 27.2014937,20.3029912 27.1869937,20.3399912 C27.1049938,20.5244908 27.0149939,20.7139905 26.916994,20.9054901 C26.7808221,21.1691907 26.7920517,21.484821 26.9466197,21.7381775 C27.1011877,21.991534 27.3767092,22.1459251 27.6734931,22.1454879 C27.9824927,22.1454879 28.2809924,21.9764882 28.4314922,21.6824887 C29.2419912,20.1034916 29.5594909,18.6864942 29.6359908,18.2974949 C29.8779905,17.2234968 29.9999903,16.1209989 29.9999903,15.0000009 Z" id="Shape"></path>
                </g>
            </g>
        </g>
    </g>
</svg>