<?xml version="1.0" encoding="UTF-8"?>
<svg width="15px" height="13px" viewBox="0 0 15 13" version="1.1" xmlns="http://www.w3.org/2000/svg" xmlns:xlink="http://www.w3.org/1999/xlink">
    <!-- Generator: Sketch 48.1 (47250) - http://www.bohemiancoding.com/sketch -->
    <title>刷新</title>
    <desc>Created with Sketch.</desc>
    <defs></defs>
    <g id="A-1-1-暂无数据" stroke="none" stroke-width="1" fill="none" fill-rule="evenodd" transform="translate(-1454.000000, -499.000000)">
        <g id="任务完成情况排名top10" transform="translate(1158.000000, 484.000000)" fill="#B5B5B5" fill-rule="nonzero">
            <g id="刷新" transform="translate(296.000000, 15.000000)">
                <path d="M10.2498735,10.5436448 C9.41643928,11.1456978 8.44088488,11.4475453 7.44330113,11.4337367 C7.31144765,11.4323186 7.18032751,11.425153 7.05071803,11.4135837 C6.99796197,11.4084335 6.94526458,11.399402 6.89173119,11.3927589 C6.78994441,11.3786518 6.68815763,11.36447 6.58927486,11.3446902 C6.52774813,11.332673 6.46765873,11.3166999 6.40762799,11.3022196 C6.31021189,11.2787077 6.21355845,11.2548227 6.11829834,11.2257127 C6.07290496,11.2112324 6.02824491,11.1944382 5.9828222,11.1787636 C5.87370208,11.1411447 5.76455262,11.1021075 5.65836584,11.0562034 C5.63420982,11.0461269 5.61077246,11.0346322 5.58730576,11.0233614 C5.46282963,10.9670822 5.34050949,10.9082653 5.22181203,10.8418349 C5.21598936,10.8389239 5.21157469,10.8363115 5.20570801,10.8333259 C4.80432491,10.6062685 4.43739384,10.3227079 4.11513749,9.99130262 C4.11003348,9.98600312 4.10487081,9.9801065 4.0997668,9.97413523 C3.99941736,9.87090696 3.90423059,9.76245382 3.81339982,9.6498208 C3.79436247,9.62563717 3.77604378,9.59996073 3.75700643,9.57540389 C3.10144971,8.73032037 2.70596261,7.66094114 2.70596261,6.49778317 L3.8177705,6.49778317 C3.84637053,6.49778317 3.87416389,6.48215338 3.88887457,6.45456612 C3.90349726,6.42729236 3.90134125,6.39489824 3.8851639,6.37066983 L2.01677519,3.4824129 C2.00215251,3.46002065 1.97735115,3.44509248 1.94916179,3.44509248 C1.92136842,3.44509248 1.89647906,3.46002065 1.88184171,3.4824129 L0.0133650032,6.37026677 C-0.00240168075,6.39485346 -0.00496835023,6.42691916 0.00969833248,6.45453627 C0.0243210151,6.48207874 0.0521877123,6.49775331 0.0807584102,6.49775331 L1.19259563,6.49775331 C1.19259563,7.86524803 1.60637208,9.13294796 2.30897951,10.1810396 C2.31777952,10.1955199 2.3236022,10.2111945 2.33315021,10.2257495 C2.40636629,10.3331576 2.48693037,10.4318328 2.56532379,10.5332697 C2.59387982,10.5716351 2.62171719,10.6110455 2.65173989,10.6488137 C2.76672668,10.7926466 2.88904681,10.9275972 3.01430028,11.0599354 C3.02672296,11.0729229 3.03772298,11.0859851 3.04942699,11.0975544 C3.47134345,11.5328598 3.94815731,11.8996448 4.46743121,12.1925355 C4.48063122,12.2012684 4.49378724,12.2094043 4.50842458,12.2172416 C4.65784875,12.3000183 4.81165825,12.374883 4.96766775,12.4456425 C5.00646113,12.4628099 5.04381717,12.4818433 5.08334388,12.4989361 C5.21666403,12.5556631 5.35360684,12.6055978 5.49132699,12.6532187 C5.55649106,12.6760588 5.62098047,12.6991974 5.68690721,12.7200222 C5.80771667,12.7569694 5.93081414,12.7874229 6.05452761,12.8181003 C6.13732103,12.8378801 6.21864779,12.8590781 6.30286388,12.8754991 C6.33721325,12.8828885 6.37018395,12.8937115 6.40460666,12.8993095 C6.52182279,12.9206568 6.63900958,12.9325247 6.75619638,12.9473782 C6.79865642,12.9522299 6.84041247,12.9596193 6.88213918,12.9645456 C7.09311941,12.9857436 7.30255964,13 7.5120292,13 C8.7945866,13 10.045508,12.5958199 11.1185958,11.8209734 C11.4606229,11.5734644 11.5440763,11.0879258 11.304496,10.7348746 C11.0644611,10.3815249 10.5919006,10.2961358 10.2498735,10.5436448 Z M13.8080841,6.49778317 C13.8074241,5.13431905 13.3964636,3.8693062 12.6970095,2.82340897 C12.6866695,2.80549517 12.6794829,2.78725295 12.6684095,2.77086183 C12.5812161,2.64300208 12.4866893,2.52372602 12.3923092,2.40407677 C12.3813092,2.3895218 12.3710425,2.37426522 12.3593825,2.36011332 C11.7191818,1.55988893 10.9156676,0.941534409 10.0045733,0.53745879 C9.9796399,0.526262665 9.95470654,0.513618507 9.92977318,0.502422382 C9.78405969,0.440963119 9.63548619,0.386549951 9.48603269,0.334704428 C9.4318393,0.31644728 9.37830591,0.296309183 9.32337918,0.279544852 C9.19306571,0.238910382 9.06055223,0.205769851 8.92715875,0.174077353 C8.85323867,0.156536757 8.77990526,0.137174925 8.70532517,0.122246758 C8.6678518,0.114782675 8.63353176,0.103631334 8.59686505,0.0969435153 C8.49727828,0.0789998588 8.39688484,0.071147643 8.29729806,0.0581302816 C8.22836465,0.049218166 8.16023791,0.0380220409 8.0906445,0.0305579575 C7.92300432,0.0145549626 7.75668414,0.00783728758 7.59043729,0.00485165421 C7.56044392,0.00485165421 7.53037722,0 7.50035452,0 C7.49525052,0 7.49008784,0.00149281668 7.48429451,0.00186602085 C6.20401044,0.00298563336 4.95521574,0.401418406 3.88363857,1.17521993 C3.54087819,1.42193774 3.45739544,1.9083422 3.6969317,2.26131871 C3.93639463,2.61429521 4.40954181,2.70005753 4.75161285,2.45254853 C5.57925376,1.85504865 6.54530415,1.55275327 7.53552523,1.56175496 C7.67837872,1.56282978 7.81829887,1.56993559 7.95667902,1.58332616 C7.99994574,1.58852116 8.04167245,1.59489549 8.08413249,1.60049355 C8.19845929,1.61467531 8.31124608,1.63142471 8.42249286,1.65416031 C8.47162625,1.66381883 8.52061297,1.67692576 8.56820636,1.6880771 C8.67739981,1.71338035 8.7866666,1.74062425 8.89358671,1.77379464 C8.92717342,1.78494598 8.96017345,1.79726171 8.99376016,1.80880119 C9.11608029,1.84985365 9.23554042,1.89414552 9.35338722,1.94449822 C9.36526723,1.94969323 9.37766058,1.95602277 9.38932059,1.96087442 C10.0946414,2.27361952 10.7135754,2.75515739 11.1963292,3.35710586 C11.1991159,3.36088269 11.2021226,3.36568956 11.2049826,3.3690484 C11.88471,4.22147658 12.2941304,5.3113074 12.2941304,6.49767867 L11.1822492,6.49767867 C11.1537959,6.49767867 11.1258558,6.51332339 11.1112625,6.54089571 C11.0965958,6.56843818 11.0987225,6.6005636 11.1150025,6.62516521 L12.9839779,9.5130788 C12.9980579,9.53539641 13.0229912,9.54987673 13.0514446,9.54987673 C13.079238,9.54987673 13.1041713,9.53539641 13.118838,9.5130788 L14.9865667,6.62516521 C15.0026267,6.6005636 15.0048267,6.56843818 14.9902334,6.54089571 C14.9754934,6.51332339 14.9477733,6.49767867 14.9191,6.49767867 L13.8080988,6.49767867 L13.8080988,6.49778317 L13.8080841,6.49778317 Z" id="Shape"></path>
            </g>
        </g>
    </g>
</svg>