<?xml version="1.0" encoding="UTF-8"?>
<svg width="16px" height="16px" viewBox="0 0 16 16" version="1.1" xmlns="http://www.w3.org/2000/svg" xmlns:xlink="http://www.w3.org/1999/xlink">
    <!-- Generator: Sketch 48.1 (47250) - http://www.bohemiancoding.com/sketch -->
    <title>Shape</title>
    <desc>Created with Sketch.</desc>
    <defs></defs>
    <g id="A-1-应急指挥" stroke="none" stroke-width="1" fill="none" fill-rule="evenodd" transform="translate(-435.000000, -109.000000)">
        <g id="Search" transform="translate(250.000000, 97.000000)" fill="#4A4A4A">
            <path d="M200.796002,25.8287193 L197.756035,22.7887523 C198.485766,21.6889382 198.912892,20.3720829 198.912892,18.9564461 C198.912892,15.1206617 195.792231,12 191.956446,12 C188.120662,12 185,15.1206617 185,18.9564461 C185,22.7922305 188.120662,25.9128923 191.956446,25.9128923 C193.372083,25.9128923 194.688938,25.4857665 195.788752,24.7560353 L198.828024,27.7960022 C199.100021,28.0679993 199.540364,28.0679993 199.811665,27.7960022 L200.795307,26.8123607 C201.067304,26.5403637 201.067999,26.1000207 200.796002,25.8287193 L200.796002,25.8287193 Z M186.391289,18.9564461 C186.391289,15.8879577 188.887958,13.3912892 191.956446,13.3912892 C195.024935,13.3912892 197.521603,15.8879577 197.521603,18.9564461 C197.521603,22.0249345 195.024935,24.521603 191.956446,24.521603 C188.887958,24.521603 186.391289,22.0249345 186.391289,18.9564461 L186.391289,18.9564461 Z" id="Shape"></path>
        </g>
    </g>
</svg>