<?xml version="1.0" encoding="UTF-8"?>
<svg width="12px" height="14px" viewBox="0 0 12 14" version="1.1" xmlns="http://www.w3.org/2000/svg" xmlns:xlink="http://www.w3.org/1999/xlink">
    <!-- Generator: Sketch 48.1 (47250) - http://www.bohemiancoding.com/sketch -->
    <title>统计 (2)</title>
    <desc>Created with Sketch.</desc>
    <defs></defs>
    <g id="A-1-应急指挥" stroke="none" stroke-width="1" fill="none" fill-rule="evenodd" transform="translate(-19.000000, -177.000000)">
        <g id="Group-5" transform="translate(0.000000, 60.000000)" fill="#FFFFFF" fill-rule="nonzero">
            <g id="统计-(2)" transform="translate(19.000000, 117.000000)">
                <path d="M10.2857143,0 L1.71428571,0 C0.771428571,0 0,0.9 0,2 L0,12 C0,13.1 0.771428571,14 1.71428571,14 L10.2857143,14 C11.2285714,14 12,13.1 12,12 L12,2 C12,0.9 11.2285714,0 10.2857143,0 Z M3.42857143,11.2977351 C3.42857143,11.5862711 3.23571429,11.822346 3,11.822346 L2.14285714,11.822346 C1.90714286,11.822346 1.71428571,11.5862711 1.71428571,11.2977351 L1.71428571,6.05162599 C1.71428571,5.76308999 1.90714286,5.52701508 2.14285714,5.52701508 L3,5.52701508 C3.23571429,5.52701508 3.42857143,5.76308999 3.42857143,6.05162599 L3.42857143,11.2977351 Z M6.86517857,11.2977351 C6.86517857,11.5862711 6.67232143,11.822346 6.43660714,11.822346 L5.57946429,11.822346 C5.34375,11.822346 5.15089286,11.5862711 5.15089286,11.2977351 L5.15089286,3.95318234 C5.15089286,3.66464634 5.34375,3.42857143 5.57946429,3.42857143 L6.43660714,3.42857143 C6.67232143,3.42857143 6.86517857,3.66464634 6.86517857,3.95318234 L6.86517857,11.2977351 Z M10.2857143,11.2977351 C10.2857143,11.5862711 10.0928571,11.822346 9.85714286,11.822346 L9,11.822346 C8.76428571,11.822346 8.57142857,11.5862711 8.57142857,11.2977351 L8.57142857,5.00240417 C8.57142857,4.71386816 8.76428571,4.47779325 9,4.47779325 L9.85714286,4.47779325 C10.0928571,4.47779325 10.2857143,4.71386816 10.2857143,5.00240417 L10.2857143,11.2977351 Z" id="Shape"></path>
            </g>
        </g>
    </g>
</svg>