<?xml version="1.0" encoding="UTF-8"?>
<svg width="27px" height="26px" viewBox="0 0 27 26" version="1.1" xmlns="http://www.w3.org/2000/svg" xmlns:xlink="http://www.w3.org/1999/xlink">
    <!-- Generator: Sketch 48.1 (47250) - http://www.bohemiancoding.com/sketch -->
    <title>flasher</title>
    <desc>Created with Sketch.</desc>
    <defs></defs>
    <g id="A-1-1-暂无数据" stroke="none" stroke-width="1" fill="none" fill-rule="evenodd" transform="translate(-270.000000, -132.000000)">
        <g id="flasher" transform="translate(270.000000, 132.000000)" fill-rule="nonzero">
            <path d="M21,21 L7,21 L7,13.1505578 C7,9.2014296 10.1340222,6 14,6 C17.8659778,6 21,9.2014296 21,13.1505578 L21,21 Z" id="Shape" fill="#FC0717"></path>
            <g id="Group" transform="translate(7.000000, 6.000000)" fill="#D20A10">
                <path d="M7.01565445,0.00774021352 C3.15696335,0.00774021352 0.0288481675,3.19708185 0.0288481675,7.13129893 L0.0288481675,14.9511032 L2.76319372,14.9511032 L2.76319372,7.13124555 C2.76329843,3.19697509 4.66717277,0.00774021352 7.01565445,0.00774021352 Z" id="Shape"></path>
                <path d="M9.9482199,14.9510498 L4.08319372,14.9510498 L4.08319372,11.668879 C4.08319372,10.0175979 5.39612565,8.67891459 7.01575916,8.67891459 C8.63534031,8.67891459 9.94832461,10.0175445 9.94832461,11.668879 L9.94832461,14.9510498 L9.9482199,14.9510498 Z" id="Shape"></path>
            </g>
            <g id="Group" fill="#D20A10">
                <path d="M13.5000527,4.78973684 C13.2184512,4.78973684 12.9901113,4.56189474 12.9901113,4.28078947 L12.9901113,0.514947368 C12.9901113,0.233894737 13.2183984,0.006 13.5000527,0.006 C13.7816543,0.006 14.0099941,0.233842105 14.0099941,0.514947368 L14.0099941,4.28084211 C14.0099414,4.56184211 13.7816543,4.78973684 13.5000527,4.78973684 Z" id="Shape"></path>
                <path d="M20.0173359,7.484 C19.8868711,7.484 19.7563008,7.43431579 19.656791,7.33489474 C19.457666,7.13615789 19.457666,6.81389474 19.656791,6.61521053 L22.324834,3.95236842 C22.523959,3.75363158 22.8468516,3.75363158 23.0459238,3.95236842 C23.2450488,4.15110526 23.2450488,4.47331579 23.0459238,4.67205263 L20.3778809,7.33489474 C20.2782656,7.43431579 20.1478008,7.484 20.0173359,7.484 Z" id="Shape"></path>
                <path d="M26.4900586,13.9885789 L22.7168086,13.9885789 C22.435207,13.9885789 22.2068672,13.7607368 22.2068672,13.4796316 C22.2068672,13.1985789 22.4351543,12.9706842 22.7168086,12.9706842 L26.4900586,12.9706842 C26.7716602,12.9706842 27,13.1985263 27,13.4796316 C27,13.7607368 26.7717129,13.9885789 26.4900586,13.9885789 Z" id="Shape"></path>
                <path d="M6.98276953,7.484 C6.85230469,7.484 6.72173438,7.43431579 6.62222461,7.33489474 L3.95407617,4.67205263 C3.75495117,4.47331579 3.75495117,4.15110526 3.95407617,3.95236842 C4.15320117,3.75363158 4.47609375,3.75363158 4.67516602,3.95236842 L7.34326172,6.61521053 C7.54238672,6.81394737 7.54238672,7.13621053 7.34326172,7.33489474 C7.24375195,7.43431579 7.11323438,7.484 6.98276953,7.484 Z" id="Shape"></path>
                <path d="M4.28313867,13.9885789 L0.509941406,13.9885789 C0.228339844,13.9885789 0,13.7607368 0,13.4796316 C0,13.1985789 0.228287109,12.9706842 0.509941406,12.9706842 L4.28319141,12.9706842 C4.56479297,12.9706842 4.79313281,13.1985263 4.79313281,13.4796316 C4.79308008,13.7607368 4.56474023,13.9885789 4.28313867,13.9885789 Z" id="Shape"></path>
            </g>
            <path d="M22.5105044,21 L6.48959676,21 C6.21918995,21 6,21.2185343 6,21.4881322 L6,25.5119182 C6,25.7815162 6.21918995,26 6.48959676,26 L22.5104538,26 C22.7808607,26 23,25.7814657 23,25.5119182 L23,21.4881322 C23.0000506,21.2185343 22.7808607,21 22.5105044,21 Z" id="Shape" fill="#F5A623"></path>
            <path d="M8,21 L5.42254998,21 C5.18917345,21 5,21.2185343 5,21.4881322 L5,25.5119182 C5,25.7815162 5.18917345,26 5.42254998,26 L7.99995632,26 L7.99995632,21 L8,21 Z" id="Shape" fill="#E39109"></path>
        </g>
    </g>
</svg>