<?xml version="1.0" encoding="UTF-8"?>
<svg width="13px" height="13px" viewBox="0 0 13 13" version="1.1" xmlns="http://www.w3.org/2000/svg" xmlns:xlink="http://www.w3.org/1999/xlink">
    <!-- Generator: Sketch 51.3 (57544) - http://www.bohemiancoding.com/sketch -->
    <title>仲裁</title>
    <desc>Created with Sketch.</desc>
    <defs></defs>
    <g id="Page-1" stroke="none" stroke-width="1" fill="none" fill-rule="evenodd">
        <g id="A-1-应急指挥" transform="translate(-20.000000, -233.000000)" fill="#FFFFFF" fill-rule="nonzero">
            <g id="左边栏" transform="translate(0.000000, 60.000000)">
                <g id="客户端信息汇总-copy" transform="translate(0.000000, 153.000000)">
                    <g id="仲裁" transform="translate(20.000000, 20.000000)">
                        <path d="M12.5671025,13 L9.31746563,13 C9.07777405,13 8.8845681,12.8052108 8.88456811,12.566812 C8.88456811,12.3269596 9.07922674,12.1336241 9.31746563,12.1336241 L12.5671025,12.1336241 C12.8067941,12.1336241 13,12.3284133 13,12.566812 C13,12.8052108 12.8053414,13 12.5671025,13 Z M12.3216002,9.96186962 L10.9037881,11.3791792 C10.7643312,11.521637 10.576936,11.5914123 10.3924461,11.5914123 C10.2108615,11.5914123 10.0307297,11.525998 9.89127276,11.3908085 L9.876746,11.3791792 L9.63705442,11.1393268 C9.49469214,10.9954154 9.42351101,10.8108017 9.42351101,10.6232808 C9.42351101,10.5375154 9.43949044,10.4488427 9.472902,10.3659846 L9.31746563,10.2118976 L6.78690356,12.7456111 C6.61839312,12.9142346 6.39758633,12.9985464 6.17532685,12.9985464 C5.95452005,12.9985464 5.73371326,12.9142346 5.56375014,12.7456111 C5.3952397,12.5784412 5.31098447,12.3574863 5.31098447,12.1336241 C5.31098447,11.9141228 5.39669237,11.6917142 5.56375014,11.5245443 L8.09576488,8.99083081 L7.94468656,8.83819747 C7.85897866,8.86872414 7.77181807,8.88616794 7.6846575,8.88616795 C7.50452564,8.88616795 7.32439379,8.82075367 7.18348418,8.68411047 L7.16895742,8.67248127 L6.92926584,8.43262888 C6.78835624,8.29017109 6.7171751,8.10555742 6.7171751,7.9165828 C6.7171751,7.73923739 6.78399821,7.55753103 6.91619175,7.4165269 L6.92926584,7.40344404 L8.34707789,5.9861344 C8.48798749,5.84367661 8.67538272,5.77244772 8.86277797,5.77244772 C9.04872053,5.77244772 9.23466309,5.84513026 9.37557269,5.9861344 L9.61526428,6.22453315 C9.75617388,6.36844459 9.82880769,6.55305825 9.82880769,6.74057922 C9.82880769,6.82779827 9.81282826,6.91647098 9.77941669,7.00078274 L11.3076321,8.52856984 C11.3918874,8.49658952 11.4805006,8.48205301 11.5676612,8.482053 C11.7550564,8.482053 11.9424517,8.55182824 12.0833613,8.69283239 L12.3230529,8.93123112 L12.3216002,8.93559209 L12.3230529,8.93559209 C12.4639625,9.07659623 12.5351436,9.26120988 12.5351436,9.4472772 C12.5351436,9.62752991 12.4697732,9.80923628 12.3361269,9.95024041 L12.3216002,9.96186962 Z M7.77181807,5.4119423 L6.7171751,6.49927317 L1.94949156,6.49927317 C1.72432674,6.49927317 1.51659402,6.70714525 1.51659402,6.93246115 C1.51659402,7.15777704 1.72432673,7.36564912 1.94949156,7.36564911 L6.06637613,7.36564911 C5.84992737,7.58224309 5.79763103,8.26109806 6.06637613,8.66521302 C6.49927367,9.31499497 6.71572243,9.31499497 6.71572243,9.31499497 L5.41557716,10.6145589 L1.30014527,10.6145589 C0.432897524,10.6145589 0,10.1813709 0,9.30918037 L0,1.2995639 C0,0.433187962 0.432897524,0 1.30014527,0 L7.58297016,0 C8.45021789,0 8.88311543,0.433187974 8.88311543,1.2995639 L8.88311543,5.19970927 C8.66811934,4.98311529 8.23376913,4.98311529 7.77181807,5.4119423 Z M6.93362387,2.16884714 L1.95094423,2.16884714 C1.72577941,2.16884714 1.5180467,2.37671921 1.51804671,2.60203511 C1.51804672,2.82735101 1.72577941,3.03522309 1.95094423,3.03522307 L6.93362387,3.03522307 C7.15878869,3.03522307 7.3665214,2.827351 7.3665214,2.60203511 C7.36797407,2.37671922 7.1587887,2.16884714 6.93362387,2.16884714 Z M6.93362387,4.33333334 L1.95094423,4.33333334 C1.72577941,4.33333334 1.5180467,4.54120541 1.51804671,4.7665213 C1.51804672,4.99183719 1.72577941,5.19970927 1.95094423,5.19970927 L6.93362387,5.19970927 C7.15878869,5.19970927 7.3665214,4.9918372 7.3665214,4.7665213 C7.3665214,4.5412054 7.1587887,4.33333332 6.93362387,4.33333334 Z" id="Shape"></path>
                    </g>
                </g>
            </g>
        </g>
    </g>
</svg>