<?xml version="1.0" standalone="no"?><!DOCTYPE svg PUBLIC "-//W3C//DTD SVG 1.1//EN" "http://www.w3.org/Graphics/SVG/1.1/DTD/svg11.dtd"><svg t="1544409730733" class="icon" style="" viewBox="0 0 1024 1024" version="1.1" xmlns="http://www.w3.org/2000/svg" p-id="4883" xmlns:xlink="http://www.w3.org/1999/xlink" width="14" height="14"><defs><style type="text/css"></style></defs><path d="M943.616 251.2l-170.112-170.112a54.4 54.4 0 0 0-77.056 0.192L452.352 325.312a54.528 54.528 0 0 0-0.192 77.12l19.776 35.264L537.792 371.84c-10.496-10.56-10.56-22.4 0-32.96l197.632-197.568 148.16 148.16-197.568 197.568c-10.56 10.56-22.4 10.56-32.96 0L587.264 552.96l35.008 19.584a54.592 54.592 0 0 0 77.12-0.192l244.032-244.032a54.592 54.592 0 0 0 0.192-77.12zM554.304 585.856l-49.408 49.408-16.448 16.512c11.072 11.072 11.136 21.76 0 32.896l-197.568 197.632-148.288-148.224 197.632-197.568c11.136-11.136 21.824-11.072 32.896 0l65.856-65.856-35.776-19.328a54.464 54.464 0 0 0-77.056 0.192l-244.096 244.032a54.528 54.528 0 0 0-0.192 77.056l170.112 170.112a54.464 54.464 0 0 0 77.056-0.192l244.096-244.032a54.528 54.528 0 0 0 0.192-77.056l-19.008-35.584z m-197.632 131.712l378.752-378.688-49.408-49.408-378.752 378.688 49.408 49.408z" p-id="4884" fill="#5EC45E"></path></svg>