<?xml version="1.0" encoding="UTF-8"?>
<svg width="107px" height="107px" viewBox="0 0 107 107" version="1.1" xmlns="http://www.w3.org/2000/svg" xmlns:xlink="http://www.w3.org/1999/xlink">
    <!-- Generator: Sketch 48.1 (47250) - http://www.bohemiancoding.com/sketch -->
    <title>无数据</title>
    <desc>Created with Sketch.</desc>
    <defs></defs>
    <g id="A-1-1-暂无数据" stroke="none" stroke-width="1" fill="none" fill-rule="evenodd" transform="translate(-1301.000000, -695.000000)">
        <g id="Group-10" transform="translate(1301.000000, 695.000000)">
            <g id="无数据">
                <circle id="Oval-2" fill="#EFEFEF" cx="53.5" cy="53.5" r="53.5"></circle>
                <path d="M15.3000001,64.001454 L16.5524001,64.001454 C16.8899645,64.0081191 17.1600676,64.2801613 17.1600001,64.613416 C17.1600001,64.951219 16.8934001,65.225378 16.5524001,65.225378 L15.3000001,65.225378 L15.3000001,66.4615412 C15.2932475,66.7947292 15.017632,67.0613306 14.6800001,67.061264 C14.5169141,67.063883 14.3595565,67.0019347 14.243063,66.889251 C14.1265694,66.7765674 14.0606416,66.622533 14.0600001,66.4615412 L14.0600001,65.225378 L12.8076001,65.225378 C12.4700357,65.2187129 12.1999325,64.9466707 12.2000001,64.613416 C12.2000001,64.275613 12.4666001,64.001454 12.8076001,64.001454 L14.0600001,64.001454 L14.0600001,62.7652907 C14.0667527,62.4321027 14.3423682,62.1655013 14.6800001,62.165568 C15.0222401,62.165568 15.3000001,62.4287116 15.3000001,62.7652907 L15.3000001,64.001454 Z M97.14,59.105758 L97.14,57.8695948 C97.1393586,57.708603 97.0734307,57.5545686 96.9569372,57.4418849 C96.8404436,57.3292013 96.6830861,57.267253 96.52,57.269872 C96.1823681,57.2698053 95.9067526,57.5364067 95.9,57.8695948 L95.9,59.105758 L94.6476,59.105758 C94.4844937,59.1063911 94.328436,59.1714642 94.2142723,59.2864475 C94.1001086,59.4014308 94.0373466,59.5567483 94.04,59.71772 C94.04,60.0457316 94.3128,60.329682 94.6476,60.329682 L95.9,60.329682 L95.9,61.5658452 C95.9,61.9024244 96.17776,62.165568 96.52,62.165568 C96.8576319,62.1656346 97.1332474,61.8990333 97.14,61.5658452 L97.14,60.329682 L98.3924,60.329682 C98.7334001,60.329682 99,60.055523 99,59.71772 C99.0000675,59.3844653 98.7299644,59.1124231 98.3924,59.105758 L97.14,59.105758 Z M52.0932801,79.300504 L20.8762801,79.300504 C20.5476511,79.3008323 20.2324406,79.1718712 20.000414,78.9421636 C19.7683874,78.712456 19.6386801,78.400946 19.6400001,78.07658 C19.6400001,77.4009739 20.2017201,76.852656 20.8762801,76.852656 L26.4996801,76.852656 C26.0656731,76.1103296 25.8380986,75.2679893 25.8400001,74.4109276 L25.8400001,38.9048924 C25.8406564,37.6063853 26.3643162,36.3614089 27.2956057,35.4442593 C28.2268952,34.5271097 29.4893993,34.0130417 30.8049601,34.015316 L34.5200001,34.015316 L34.5200001,32.7852724 C34.5206563,31.4867653 35.0443162,30.241789 35.9756057,29.3246394 C36.9068951,28.4074898 38.1693992,27.8934218 39.4849601,27.895696 L69.23504,27.895696 C70.550802,27.8927703 71.8136894,28.4066287 72.7451222,29.3239194 C73.676555,30.2412102 74.2000034,31.4865653 74.2,32.7852724 L74.2,68.2913076 C74.2,69.1811003 73.95944,70.0145926 73.53908,70.733036 L80.39876,70.733036 C81.08448,70.733036 81.64,71.2764582 81.64,71.95696 C81.64,72.6325661 81.0882,73.180884 80.4,73.180884 L65.52,73.180884 L65.52,74.4109276 C65.52,75.3007204 65.27944,76.1342126 64.85908,76.852656 L85.52372,76.852656 C86.20572,76.852656 86.76,77.3960783 86.76,78.07658 C86.76,78.752186 86.19828,79.300504 85.52372,79.300504 L59.0000801,79.300504 C59.5667601,80.2380298 59.4440001,81.4668494 58.6194,82.2807589 C58.1551417,82.7411642 57.5241539,83 56.8660401,83 C56.2079262,83 55.5769384,82.7411642 55.1126801,82.2807589 L52.0932801,79.300504 Z M56.62672,76.852656 L60.5699201,76.852656 C61.93392,76.852656 63.0400001,75.7633637 63.0400001,74.3986884 L63.0400001,38.847368 C63.0400001,37.52553 61.9686401,36.463164 60.6468001,36.463164 L30.7132001,36.463164 C29.3913601,36.463164 28.3200001,37.5304257 28.3200001,38.847368 L28.3200001,74.3986884 C28.3200001,75.7535722 29.4360001,76.852656 30.7888401,76.852656 L49.61204,76.852656 L48.97468,76.2223351 C48.3456939,75.6047815 48.0996927,74.7021751 48.32988,73.85649 L47.1593201,72.6998818 C43.5121698,75.3796078 38.3882066,74.8283255 35.4116214,71.4359581 C32.4350362,68.0435907 32.61403,62.959169 35.8220001,59.7789162 C39.0397103,56.5915764 44.2071788,56.4042111 47.6531456,59.3499351 C51.0991124,62.2956591 51.649237,67.3706082 48.9126801,70.9692533 L50.0844801,72.1258615 C50.9410504,71.897557 51.85588,72.1399993 52.4814001,72.761078 L56.62672,76.852656 Z M65.52,70.733036 L69.25116,70.733036 C70.6161825,70.7263028 71.7193349,69.6325302 71.7200001,68.285188 L71.7200001,32.791392 C71.7200001,31.4352842 70.6139201,30.343544 69.25116,30.343544 L39.4676001,30.343544 C38.1030624,30.3509479 37.0006614,31.4445247 37.0000001,32.791392 L37.0000001,34.015316 L60.55504,34.015316 C61.870802,34.0123902 63.1336894,34.5262487 64.0651222,35.4435394 C64.996555,36.3608302 65.5200034,37.6061853 65.52,38.9048924 L65.52,70.733036 Z M21.8100001,25.753829 L23.6576001,25.753829 C24.1784001,25.753829 24.6000001,26.1613957 24.6000001,26.671772 C24.6000001,27.1784766 24.1784001,27.589715 23.6576001,27.589715 L21.8100001,27.589715 L21.8100001,29.4133617 C21.8100001,29.9274099 21.3970801,30.343544 20.8800001,30.343544 C20.6317027,30.3419263 20.3942266,30.2430152 20.2198166,30.068571 C20.0454066,29.8941268 19.9483503,29.65844 19.9500001,29.4133617 L19.9500001,27.589715 L18.1024001,27.589715 C17.8539052,27.5919971 17.6147398,27.4964111 17.4378599,27.3241216 C17.26098,27.151832 17.1609794,26.917054 17.1600001,26.671772 C17.1600001,26.1650674 17.5816001,25.753829 18.1024001,25.753829 L19.9500001,25.753829 L19.9500001,23.9301823 C19.9500001,23.4161341 20.3629201,23 20.8800001,23 C21.3933601,23 21.8100001,23.4161341 21.8100001,23.9301823 L21.8100001,25.753829 Z M7.00000998,78.223924 C7.00000998,77.5483179 7.56173,76.9999999 8.23628993,77 L15.6837299,77 C16.3657299,77 16.9200099,77.5434223 16.9200099,78.223924 C16.9200099,78.89953 16.3582899,79.447848 15.6837299,79.447848 L8.23628993,79.447848 C7.90766094,79.4481763 7.59245044,79.3192152 7.36042389,79.0895076 C7.12839733,78.8598 6.99869,78.54829 7.00000998,78.223924 Z M92.00001,78.223924 C92.00001,77.5483179 92.56173,76.9999999 93.2362899,77 L100.68373,77 C101.36573,77 101.92001,77.5434223 101.92001,78.223924 C101.92001,78.89953 101.35829,79.447848 100.68373,79.447848 L93.2362899,79.447848 C92.9076609,79.4481763 92.5924504,79.3192152 92.3604239,79.0895076 C92.1283973,78.8598 91.99869,78.54829 92.00001,78.223924 Z M46.3446401,70.1651352 C47.9111211,68.6189629 48.5229016,66.3653676 47.9495297,64.253257 C47.3761579,62.1411463 45.7047426,60.4914 43.5648897,59.9254617 C41.4250369,59.3595233 39.1418411,59.9633724 37.5753601,61.5095447 C35.1537904,63.8997201 35.1537904,67.7749599 37.5753602,70.1651352 C39.9969299,72.5553105 43.9230702,72.5553105 46.3446401,70.1651352 Z M33.2800001,41.35886 C33.2799998,40.6833831 33.8344113,40.1356115 34.5187601,40.134936 L48.1600001,40.134936 C48.8448332,40.134936 49.4000001,40.6829054 49.4000001,41.35886 C49.4000001,42.0348146 48.8448332,42.582784 48.1600001,42.582784 L34.5200001,42.582784 C34.1908285,42.5837631 33.874853,42.4551288 33.6420925,42.2253859 C33.409332,41.9956431 33.2790081,41.683764 33.2800001,41.35886 Z M33.2800001,47.47848 C33.2800001,46.8028739 33.8318001,46.2545559 34.5113201,46.254556 L54.36868,46.254556 C55.0482,46.254556 55.6000001,46.7979783 55.6000001,47.47848 C55.6000001,48.154086 55.0482001,48.702404 54.36868,48.702404 L34.5113201,48.702404 C34.1833466,48.7020842 33.8690267,48.5727579 33.6379303,48.3430496 C33.406834,48.1133414 33.2780202,47.8021956 33.2800001,47.47848 Z M33.2800001,53.5981 C33.2800001,52.9224939 33.8330401,52.374176 34.5175201,52.374176 L43.2024801,52.374176 C43.8857201,52.374176 44.4400001,52.9175983 44.4400001,53.5981 C44.4400001,54.2737061 43.8869601,54.822024 43.2024801,54.822024 L34.5175201,54.822024 C34.1886764,54.8226784 33.8731465,54.6938612 33.6408512,54.4641181 C33.408556,54.234375 33.2786788,53.9226785 33.2800001,53.5981 Z M9.72000011,46.254556 C8.39097209,46.254556 7.16289954,45.5547203 6.49838552,44.41867 C5.83387149,43.2826198 5.83387149,41.8829482 6.49838552,40.746898 C7.16289954,39.6108478 8.39097209,38.911012 9.72000011,38.911012 C11.7744993,38.9110121 13.44,40.5549204 13.44,42.582784 C13.44,44.6106476 11.7744993,46.2545559 9.72000011,46.254556 Z M9.72000011,44.41867 C10.3845932,44.4187872 10.9987534,44.0688949 11.3310843,43.5008217 C11.6634151,42.9327484 11.6634151,42.2328195 11.3310843,41.6647463 C10.9987534,41.0966731 10.3845932,40.7467808 9.72000011,40.746898 C8.69288024,40.7470791 7.86033237,41.5689802 7.86033237,42.582784 C7.86033237,43.5965878 8.69288024,44.4184889 9.72000011,44.41867 Z M86.6,38.911012 C84.5455008,38.911012 82.88,37.2671037 82.88,35.23924 C82.88,33.2113763 84.5455008,31.567468 86.6,31.567468 C88.6544993,31.567468 90.32,33.2113763 90.32,35.23924 C90.32,37.2671037 88.6544993,38.911012 86.6,38.911012 Z M86.6,37.075126 C87.2645932,37.0752432 87.8787534,36.7253509 88.2110842,36.1572777 C88.5434151,35.5892044 88.5434151,34.8892755 88.2110842,34.3212023 C87.8787534,33.7531291 87.2645932,33.4032368 86.6,33.403354 C85.5728802,33.4035351 84.7403323,34.2254362 84.7403323,35.23924 C84.7403323,36.2530438 85.5728802,37.0749449 86.6,37.075126 Z" id="Shape" fill="#8A96A3" fill-rule="nonzero"></path>
            </g>
        </g>
    </g>
</svg>