<?xml version="1.0" encoding="UTF-8"?>
<svg width="13px" height="15px" viewBox="0 0 13 15" version="1.1" xmlns="http://www.w3.org/2000/svg" xmlns:xlink="http://www.w3.org/1999/xlink">
    <!-- Generator: Sketch 48.1 (47250) - http://www.bohemiancoding.com/sketch -->
    <title>删除 (1) copy 12</title>
    <desc>Created with Sketch.</desc>
    <defs></defs>
    <g id="A-1-1-暂无数据" stroke="none" stroke-width="1" fill="none" fill-rule="evenodd" transform="translate(-1093.000000, -745.000000)">
        <g id="删除-(1)-copy-12" transform="translate(1093.000000, 745.000000)" fill="#898989" fill-rule="nonzero">
            <path d="M0,2.32564812 C0,2.11467054 0.0796155094,1.93272347 0.238846528,1.77980691 C0.398077547,1.62689036 0.587537854,1.55043208 0.80722745,1.55043208 L4.87710902,1.55043208 L4.87710902,0.775216041 C4.87710902,0.564238455 4.95672453,0.382291385 5.11595555,0.229374831 C5.27518657,0.0764582771 5.46464687,0 5.68433647,0 L7.31566353,0 C7.53535313,0 7.72481343,0.0764582771 7.88404445,0.229374831 C8.04327547,0.382291385 8.12289098,0.564238455 8.12289098,0.775216041 L8.12289098,1.55043208 L12.1927726,1.55043208 C12.4124621,1.55043208 12.6019225,1.62689036 12.7611535,1.77980691 C12.9203845,1.93272347 13,2.11467054 13,2.32564812 L13,3.10086416 L0,3.10086416 L0,2.32564812 Z M12.1927726,4.65180259 L12.1927726,14.224784 C12.1927726,14.4357615 12.113157,14.6177086 11.953926,14.7706252 C11.794695,14.9235417 11.6052347,15 11.3855451,15 L1.63132706,15 C1.40074086,15 1.20583225,14.9235417 1.04660123,14.7706252 C0.887370214,14.6177086 0.807754705,14.4357615 0.807754705,14.224784 L0.807754705,3.87608021 L12.1932998,3.87608021 L12.1932998,4.65129625 L12.1927726,4.65180259 Z M4.06988157,6.20274102 C4.06988157,5.99176344 3.99026606,5.80981637 3.83103504,5.65689981 C3.67180402,5.50398326 3.47953169,5.42752498 3.25421804,5.42752498 C3.02890439,5.42752498 2.83663206,5.50398326 2.67740104,5.65689981 C2.51817002,5.80981637 2.43855451,5.99176344 2.43855451,6.20274102 L2.43855451,12.6743519 C2.43855451,12.8853295 2.51817002,13.0672765 2.67740104,13.2201931 C2.83663206,13.3731096 3.02890439,13.4495679 3.25421804,13.4495679 C3.47953169,13.4495679 3.67180402,13.3731096 3.83103504,13.2201931 C3.99026606,13.0672765 4.06988157,12.8853295 4.06988157,12.6743519 L4.06988157,6.20274102 Z M7.31566353,6.20274102 C7.31566353,5.99176344 7.23604802,5.80981637 7.076817,5.65689981 C6.91758598,5.50398326 6.72531365,5.42752498 6.5,5.42752498 C6.27468635,5.42752498 6.08241402,5.50398326 5.923183,5.65689981 C5.76395198,5.80981637 5.68433647,5.99176344 5.68433647,6.20274102 L5.68433647,12.6743519 C5.68433647,12.8853295 5.76395198,13.0672765 5.923183,13.2201931 C6.08241402,13.3731096 6.27468635,13.4495679 6.5,13.4495679 C6.72531365,13.4495679 6.91758598,13.3731096 7.076817,13.2201931 C7.23604802,13.0672765 7.31566353,12.8853295 7.31566353,12.6743519 L7.31566353,6.20274102 Z M10.5614455,6.20274102 C10.5614455,5.99176344 10.48183,5.80981637 10.322599,5.65689981 C10.1633679,5.50398326 9.97390764,5.42752498 9.75421804,5.42752498 C9.53452844,5.42752498 9.34506814,5.50398326 9.18583712,5.65689981 C9.0266061,5.80981637 8.94699059,5.99176344 8.94699059,6.20274102 L8.94699059,12.6743519 C8.94699059,12.8853295 9.0266061,13.0672765 9.18583712,13.2201931 C9.34506814,13.3731096 9.53452844,13.4495679 9.75421804,13.4495679 C9.97390764,13.4495679 10.1633679,13.3731096 10.322599,13.2201931 C10.48183,13.0672765 10.5614455,12.8853295 10.5614455,12.6743519 L10.5614455,6.20274102 Z" id="Shape"></path>
        </g>
    </g>
</svg>