<?xml version="1.0" encoding="UTF-8"?>
<svg width="18px" height="19px" viewBox="0 0 18 19" version="1.1" xmlns="http://www.w3.org/2000/svg" xmlns:xlink="http://www.w3.org/1999/xlink">
    <!-- Generator: Sketch 48.1 (47250) - http://www.bohemiancoding.com/sketch -->
    <title>日历</title>
    <desc>Created with Sketch.</desc>
    <defs></defs>
    <g id="B-1-信息汇总" stroke="none" stroke-width="1" fill="none" fill-rule="evenodd" transform="translate(-1526.000000, -110.000000)">
        <g id="日历" transform="translate(1526.000000, 110.000000)" fill="#898989" fill-rule="nonzero">
            <path d="M12.6662794,5.36250024 C13.1140316,5.36250024 13.5029766,4.99579498 13.5029766,4.54317685 L13.5029766,0.81972998 C13.5029766,0.367111849 13.1140114,0 12.6662794,0 C12.2181445,0 11.8551479,0.367111849 11.8551479,0.81972998 L11.8551479,4.54315652 C11.8551479,4.99579498 12.2181445,5.36250024 12.6662794,5.36250024 Z M11.0467966,2.06384028 L6.93998744,2.06384028 L6.93998744,3.30148577 L11.0467966,3.30148577 L11.0467966,2.06384028 Z M15.8516357,2.06384028 L14.3253095,2.06384028 L14.3253095,3.2946347 L15.9100198,3.2946347 C16.3761857,3.2946347 16.7695428,3.69238325 16.7695428,4.16317604 L16.7695428,7.0273722 L1.2176643,7.0273722 L1.2176643,4.16315571 C1.2176643,3.69238325 1.61104153,3.29461437 2.07716716,3.29461437 L3.67227294,3.29461437 L3.67227294,2.06381995 L2.14836429,2.06381995 C0.966641036,2.06381995 0,3.04086035 0,4.23536644 L0,16.8288601 C0,18.0230206 0.931042472,19 2.11276572,19 L15.8516357,19 C17.032956,19 18,18.0230206 18,16.8288601 L18,4.23538677 C18,3.04088068 17.0329359,2.06384028 15.8516357,2.06384028 Z M16.7695629,16.8926544 C16.7695629,17.3634472 16.3761655,17.7611957 15.9100399,17.7611957 L2.07716716,17.7611957 C1.61104153,17.7611957 1.2176643,17.3634675 1.2176643,16.8926544 L1.2176643,8.26056551 L16.7695629,8.26056551 L16.7695629,16.8926544 Z M4.47540637,11.9771613 C5.15540543,11.9771613 5.70628666,11.420049 5.70628666,10.7326647 C5.70628666,10.0456464 5.15540543,9.48855444 4.47540637,9.48855444 C3.79581024,9.48855444 3.24450593,10.0456464 3.24450593,10.7326647 C3.24450593,11.4200287 3.79579009,11.9771613 4.47540637,11.9771613 Z M8.98280511,11.9771613 C9.66240124,11.9771613 10.2136854,11.420049 10.2136854,10.7326647 C10.2136854,10.0456464 9.66242139,9.48855444 8.98280511,9.48855444 C8.3027859,9.48855444 7.75188452,10.0456464 7.75188452,10.7326647 C7.75190467,11.4200287 8.3027859,11.9771613 8.98280511,11.9771613 Z M4.45342672,16.5271689 C5.13342578,16.5271689 5.68428687,15.9700566 5.68428687,15.2830789 C5.68428687,14.5956743 5.13342578,14.0385417 4.45342672,14.0385417 C3.77381044,14.0385417 3.22252628,14.595654 3.22252628,15.2830789 C3.22254643,15.9700566 3.7737903,16.5271689 4.45342672,16.5271689 Z M8.98280511,16.5271689 C9.66240124,16.5271689 10.2136854,15.9700566 10.2136854,15.2830789 C10.2136854,14.5956743 9.66242139,14.0385417 8.98280511,14.0385417 C8.3027859,14.0385417 7.75188452,14.595654 7.75188452,15.2830789 C7.75190467,15.9700566 8.3027859,16.5271689 8.98280511,16.5271689 Z M13.4837973,11.9771613 C14.1634136,11.9771613 14.7147179,11.420049 14.7147179,10.7326647 C14.7147179,10.0456464 14.1634337,9.48855444 13.4837973,9.48855444 C12.8037781,9.48855444 12.2528969,10.0456464 12.2528969,10.7326647 C12.2528969,11.4200287 12.8037781,11.9771613 13.4837973,11.9771613 Z M5.2977191,5.36250024 C5.74545113,5.36250024 6.1344566,4.99579498 6.1344566,4.54317685 L6.1344566,0.81972998 C6.1344566,0.367111849 5.74547127,0 5.2977191,0 C4.84960429,0 4.48658758,0.367111849 4.48658758,0.81972998 L4.48658758,4.54315652 C4.48658758,4.99579498 4.84960429,5.36250024 5.2977191,5.36250024 Z" id="Shape"></path>
        </g>
    </g>
</svg>