<?xml version="1.0" encoding="UTF-8"?>
<svg width="12px" height="14px" viewBox="0 0 12 14" version="1.1" xmlns="http://www.w3.org/2000/svg" xmlns:xlink="http://www.w3.org/1999/xlink">
    <!-- Generator: Sketch 48.1 (47250) - http://www.bohemiancoding.com/sketch -->
    <title>信息市场_sel</title>
    <desc>Created with Sketch.</desc>
    <defs></defs>
    <g id="A-1-应急指挥" stroke="none" stroke-width="1" fill="none" fill-rule="evenodd" transform="translate(-19.000000, -76.000000)">
        <g id="Group-5" transform="translate(0.000000, 60.000000)" fill="#FFFFFF" fill-rule="nonzero">
            <g id="信息市场_sel" transform="translate(19.000000, 16.000000)">
                <path d="M3,1.21610994 C3,1.57459001 3.27235309,1.86666667 3.60746169,1.86666667 L8.3932892,1.86666667 C8.72764691,1.86666667 9,1.5746049 9,1.21610994 L9,0.695992191 C8.94686709,0.305107153 8.64571572,0 8.26633201,0 L3.73441889,0 C3.35503518,0 3.05389771,0.305107153 3.0000139,0.695992191 L3.00001391,1.21610994 L3,1.21610994 Z" id="Shape"></path>
                <path d="M10.53123,0.933333333 L10.1200675,0.933333333 L10.1200675,1.36794296 C10.1200675,1.99650291 9.5772922,2.50765755 8.91187311,2.50765755 L3.06560255,2.50765755 C2.39928316,2.50765755 1.85739119,1.99650291 1.85739119,1.36794296 L1.85739119,0.933333333 L1.46878698,0.933333333 C0.66001732,0.933333333 0,1.49467406 0,2.18487702 L0,9.10179264 L1.6599799e-08,12.7484563 C1.6599799e-08,13.4386593 0.658199775,14 1.46788671,14 L10.53123,14 C11.3399997,14 11.9990997,13.4386593 11.9990997,12.7484563 L11.9990997,9.31529185 L12,9.31529185 L12,2.18489306 C12,1.49467406 11.3409,0.933333333 10.53123,0.933333333 Z M3.03494857,11.0397548 C2.6247991,11.0397548 2.29287862,10.7266776 2.29287862,10.3397548 C2.29287862,9.95283208 2.62477177,9.63975485 3.03494857,9.63975485 C3.44512537,9.63975485 3.77701852,9.95283208 3.77701852,10.3397548 C3.77701852,10.7266776 3.44512537,11.0397548 3.03494857,11.0397548 Z M3.03494857,8.42693747 C2.6247991,8.42693747 2.29287862,8.11386024 2.29287862,7.72693747 C2.29287862,7.34001471 2.62477177,7.02693747 3.03494857,7.02693747 C3.44512537,7.02693747 3.77701852,7.34001471 3.77701852,7.72693747 C3.77701852,8.11386024 3.44512537,8.42693747 3.03494857,8.42693747 Z M3.03494857,5.81410408 C2.6247991,5.81410408 2.29287862,5.50102684 2.29287862,5.11410408 C2.29287862,4.72718131 2.62477177,4.41410408 3.03494857,4.41410408 C3.44512537,4.41410408 3.77701852,4.72718131 3.77701852,5.11410408 C3.77701852,5.50102684 3.44512537,5.81410408 3.03494857,5.81410408 Z M9.21753139,11.0397548 L4.60109621,11.0397548 C4.34593935,11.0397548 4.13944929,10.7266776 4.13944929,10.3397548 C4.13944929,9.95283208 4.34592235,9.63975485 4.60109621,9.63975485 L9.21753139,9.63975487 C9.47268825,9.63975487 9.67917831,9.95283211 9.67917831,10.3397549 C9.67917831,10.7266776 9.47268825,11.0397548 9.21753139,11.0397548 Z M9.21753139,8.42693747 L4.60109621,8.42693747 C4.34593935,8.42693747 4.13944929,8.11386024 4.13944929,7.72693747 C4.13944929,7.34001471 4.34592235,7.02693747 4.60109621,7.02693747 L9.21753139,7.0269375 C9.47268825,7.0269375 9.67917831,7.34001473 9.67917831,7.7269375 C9.67917831,8.11386026 9.47268825,8.42693747 9.21753139,8.42693747 Z M9.21753139,5.81410408 L4.60109621,5.81410408 C4.34593935,5.81410408 4.13944929,5.50102684 4.13944929,5.11410408 C4.13944929,4.72718131 4.34592235,4.41410408 4.60109621,4.41410408 L9.21753139,4.4141041 C9.47268825,4.4141041 9.67917831,4.72718134 9.67917831,5.1141041 C9.67917831,5.50102687 9.47268825,5.81410408 9.21753139,5.81410408 Z" id="Shape"></path>
            </g>
        </g>
    </g>
</svg>