<?xml version="1.0" encoding="UTF-8"?>
<svg width="12px" height="12px" viewBox="0 0 12 12" version="1.1" xmlns="http://www.w3.org/2000/svg" xmlns:xlink="http://www.w3.org/1999/xlink">
    <!-- Generator: Sketch 48.1 (47250) - http://www.bohemiancoding.com/sketch -->
    <title>announcement icon  copy</title>
    <desc>Created with Sketch.</desc>
    <defs></defs>
    <g id="A-1-应急指挥" stroke="none" stroke-width="1" fill="none" fill-rule="evenodd" transform="translate(-1355.000000, -394.000000)">
        <g id="Group-19" transform="translate(1346.000000, 380.000000)" fill="#575757">
            <path d="M19.7949791,18.0103074 L19.7949791,14.5897202 C19.7949791,13.9904933 19.041841,13.8157188 18.6401674,14.2152034 L16.4058577,16.3124977 C16.0543933,16.6121112 15.6025105,16.7369501 15.1506276,16.7369501 L11.334728,16.7369501 C10.0292887,16.7619179 9,17.8854684 9,19.1837935 L9,19.2337291 C9,20.5320541 10.0292887,21.5057979 11.334728,21.5057979 L15.1506276,21.5057979 C15.6276151,21.5057979 16.0794979,21.7055402 16.4309623,22.0051537 L18.6401674,24.1523836 C19.041841,24.5518682 19.7949791,24.4020615 19.7949791,23.8028345 L19.7949791,20.4072152 C20.5481172,20.4072152 21,19.8828916 21,19.2087613 C21,18.534631 20.5481172,18.0103074 19.7949791,18.0103074 M14.1966527,24.8514817 L13.8702929,24.6018038 C13.5188285,24.3521259 13.5188285,23.8527701 13.5188285,23.6030922 L13.5188285,22.8790263 C13.5188285,22.679284 13.3430962,22.5045095 13.1422594,22.5045095 L11.6359833,22.5045095 C11.4351464,22.5045095 11.2594142,22.679284 11.2594142,22.8790263 L11.2594142,24.8015461 C11.2594142,25.4756764 11.6610879,26 12.2887029,26 L13.5188285,26 C14.2468619,26 14.2970711,25.5006442 14.2970711,25.5006442 C14.2970711,25.5006442 14.4225941,25.051224 14.1966527,24.8514817" id="announcement-icon--copy"></path>
        </g>
    </g>
</svg>