<?xml version="1.0" encoding="UTF-8"?>
<svg width="12px" height="14px" viewBox="0 0 12 14" version="1.1" xmlns="http://www.w3.org/2000/svg" xmlns:xlink="http://www.w3.org/1999/xlink">
    <!-- Generator: Sketch 48.1 (47250) - http://www.bohemiancoding.com/sketch -->
    <title>任务</title>
    <desc>Created with Sketch.</desc>
    <defs></defs>
    <g id="A-1-应急指挥" stroke="none" stroke-width="1" fill="none" fill-rule="evenodd" transform="translate(-19.000000, -125.000000)">
        <g id="Group-5" transform="translate(0.000000, 60.000000)" fill="#FFFFFF" fill-rule="nonzero">
            <g id="任务" transform="translate(19.000000, 65.000000)">
                <path d="M4.8,1.83625974 C4.8,1.30649709 5.36598483,0.836259741 6,0.836259741 C6.70563959,0.836259741 7.2,1.30649709 7.2,1.83625974 C7.2,2.48211384 6.63401517,2.83625974 6,2.83625974 C5.36606381,2.83625974 4.8,2.36602239 4.8,1.83625974 Z M7.95695498,0.713812172 C7.95695498,0.332776663 7.61251551,0 7.17082447,0 L4.85968277,0 C4.41797798,0 4.07355226,0.332801892 4.07355226,0.713812172 C4.07355226,0.952532001 3.87635229,1.09484768 3.67919362,1.09484768 L3.38470082,1.09484768 C3.14018222,1.09484768 2.99034218,1.28537175 2.99034218,1.47588319 L2.99034218,2.61896449 C2.99034218,2.85768432 3.18754215,3 3.38470082,3 L8.59598354,3 C8.84050214,3 8.99034218,2.80947593 8.99034218,2.61896449 L8.99034218,1.47588319 C8.99034218,1.23716336 8.79314222,1.09484768 8.59598354,1.09484768 L8.35146494,1.09484768 C8.10679502,1.09484768 7.95695498,0.904323613 7.95695498,0.713812172 Z M6.11821296,10.9119942 C6.01628859,11.057015 5.70496435,11.0103212 5.55062873,10.8628178 L2.45927363,8.483429 C2.40693449,8.4342526 2.35734927,8.33840816 2.45927363,8.28923177 L3.02685786,7.65750228 C3.07919701,7.60832588 3.18115023,7.60832588 3.2335038,7.65750228 L5.6553503,9.50352721 C5.75727467,9.55270361 5.86199624,9.55270361 5.96394945,9.45435081 L9.77444161,5.08145939 C9.82678076,4.98313233 9.92873398,4.98313233 9.98108755,5.032283 L10.7029353,5.61486181 C10.8048597,5.66403821 10.8572277,5.71318888 10.7029353,5.85818398 L6.11821296,10.9119942 Z M10.3240937,1.44489236 L10.3240937,3.38118376 C10.3240937,3.65816707 10.1139088,3.82329398 9.90376793,3.82329398 L2.09617343,3.87927343 C1.83555413,3.87927343 1.67584764,3.658211 1.67584764,3.43716321 L1.67584764,1.50087181 C1.67584764,1.2238885 1.46566274,1.05876158 1.25552184,1.05876158 L0.99490254,1.05876158 C0.313913448,1.00278213 0,1.44490701 0,2.05488237 L0,12.8387962 C0,13.3368566 0.470789531,14 1.1013442,14 L10.8986558,14 C11.4226955,14 12,13.3927775 12,12.8387962 L12,1.99612079 C12,1.4980604 11.6328804,1 11.0555905,1 L10.7949712,1 C10.5343519,1.00281142 10.3241817,1.1679237 10.3241817,1.44489236 L10.3240937,1.44489236 Z" id="Shape"></path>
            </g>
        </g>
    </g>
</svg>