<?xml version="1.0" encoding="UTF-8"?>
<svg width="12px" height="12px" viewBox="0 0 12 12" version="1.1" xmlns="http://www.w3.org/2000/svg" xmlns:xlink="http://www.w3.org/1999/xlink">
    <!-- Generator: Sketch 51.3 (57544) - http://www.bohemiancoding.com/sketch -->
    <title>上报</title>
    <desc>Created with Sketch.</desc>
    <defs></defs>
    <g id="Page-1" stroke="none" stroke-width="1" fill="none" fill-rule="evenodd">
        <g id="A-1-应急指挥" transform="translate(-20.000000, -181.000000)" fill="#FFFFFF" fill-rule="nonzero">
            <g id="左边栏" transform="translate(0.000000, 60.000000)">
                <g id="客户端信息汇总" transform="translate(0.000000, 102.000000)">
                    <path d="M31.3164557,31 L20.6835443,31 C20.3113924,31 20,30.6962025 20,30.3164557 L20,19.6835443 C20,19.3113924 20.3037975,19 20.6835443,19 L31.3164557,19 C31.6886076,19 32,19.3037975 32,19.6835443 L32,30.3164557 C32,30.6962025 31.6962025,31 31.3164557,31 Z M28.2708861,26.1088608 L23.7291139,26.1088608 L23.7291139,27.2936709 L28.2708861,27.2936709 L28.2708861,26.1088608 Z M28.2632911,27.9544304 L23.7291139,27.9544304 L23.7291139,29.1392405 L28.2632911,29.1392405 L28.2632911,27.9544304 Z M25.9468354,19.7518987 L23.356962,22.3417722 L24.2,23.1848101 L25.3544304,22.0303797 L25.3544304,24.9924051 L26.5468354,24.9924051 L26.5468354,22.0303797 L27.7012658,23.1848101 L28.5367089,22.3417722 L25.9468354,19.7518987 Z" id="上报"></path>
                </g>
            </g>
        </g>
    </g>
</svg>