<?xml version="1.0" encoding="UTF-8"?>
<svg width="22px" height="22px" viewBox="0 0 22 22" version="1.1" xmlns="http://www.w3.org/2000/svg" xmlns:xlink="http://www.w3.org/1999/xlink">
    <!-- Generator: Sketch 48.1 (47250) - http://www.bohemiancoding.com/sketch -->
    <title>noun_1015008_cc</title>
    <desc>Created with Sketch.</desc>
    <defs></defs>
    <g id="A-1-1-暂无数据" stroke="none" stroke-width="1" fill="none" fill-rule="evenodd" transform="translate(-276.000000, -191.000000)">
        <g id="Group-9" transform="translate(256.000000, 123.000000)" fill="#687178" fill-rule="nonzero">
            <g id="noun_1015008_cc" transform="translate(20.000000, 68.000000)">
                <path d="M11,0.119565217 C5.00045652,0.119565217 0.119565217,5.00045652 0.119565217,11 C0.119565217,16.9995435 5.00045652,21.8804348 11,21.8804348 C16.9995435,21.8804348 21.8804348,16.9995435 21.8804348,11 C21.8804348,5.00045652 16.9995435,0.119565217 11,0.119565217 Z M11,20.2065217 C5.9235,20.2065217 1.79347826,16.0765 1.79347826,11 C1.79347826,5.9235 5.9235,1.79347826 11,1.79347826 C16.0765,1.79347826 20.2065217,5.9235 20.2065217,11 C20.2065217,16.0765 16.0765,20.2065217 11,20.2065217 Z M14.7581739,6.13823913 L11.8369565,9.00565217 L11.8369565,3.54726087 C11.8369565,3.08502174 11.4622391,2.71030435 11,2.71030435 C10.5377609,2.71030435 10.1630435,3.08502174 10.1630435,3.54726087 L10.1630435,11 C10.1630435,11.3371739 10.3653478,11.6413478 10.6762174,11.771913 C10.7809565,11.815913 10.8907174,11.8369565 11,11.8369565 C11.2152174,11.8369565 11.4268478,11.7539783 11.586587,11.5973478 L15.9308696,7.33293478 C16.2606304,7.00915217 16.265413,6.47923913 15.9418696,6.14923913 C15.618087,5.81923913 15.0881739,5.81421739 14.7581739,6.13823913 Z" id="Shape"></path>
            </g>
        </g>
    </g>
</svg>