<?xml version="1.0" encoding="UTF-8"?>
<svg width="22px" height="19px" viewBox="0 0 22 19" version="1.1" xmlns="http://www.w3.org/2000/svg" xmlns:xlink="http://www.w3.org/1999/xlink">
    <!-- Generator: Sketch 48.1 (47250) - http://www.bohemiancoding.com/sketch -->
    <title>上传</title>
    <desc>Created with Sketch.</desc>
    <defs></defs>
    <g id="A-1-1-快速上报" stroke="none" stroke-width="1" fill="none" fill-rule="evenodd" transform="translate(-1092.000000, -1199.000000)">
        <g id="上传" transform="translate(1092.000000, 1199.000000)" fill="#FFFFFF" fill-rule="nonzero">
            <path d="M4.5983815,7.6 C4.04901734,7.6 3.68277457,7.22042222 3.68277457,6.65 C3.68277457,2.945 6.52115607,0 10.0920231,0 C12.8392509,0 15.3109827,1.9 16.2265896,4.655 C16.3185572,5.13 16.1350289,5.70042222 15.5860717,5.795 C15.1278613,5.98457778 14.5784971,5.7 14.3957827,5.225 C13.8460116,3.23 12.1067653,1.9 10.0920231,1.9 C7.5283237,1.9 5.51398844,3.99 5.51398844,6.65 C5.51398844,7.22 5.14774566,7.6 4.5983815,7.6 Z M16.5016786,15.2 C15.9523145,15.2 15.5860717,14.8204222 15.5860717,14.25 C15.5860717,13.6795778 15.9523145,13.3 16.5016786,13.3 C18.5156069,13.3 20.1632925,11.5904222 20.1632925,9.5 C20.1632925,7.41 18.5156069,5.7 16.5016786,5.7 C16.2265896,5.7 15.8599399,5.7 15.5860717,5.795 C15.1278613,5.89042222 14.5784971,5.605 14.4869364,5.13 C14.3957827,4.655 14.6700578,4.08457778 15.1278613,3.98957778 C15.5860717,3.89457778 16.0430613,3.79957778 16.5016786,3.79957778 C19.5231815,3.79957778 21.9949133,6.36457778 21.9949133,9.49957778 C21.9949133,12.6345778 19.5231815,15.2 16.5016786,15.2 Z M7.34520231,15.2 L4.5983815,15.2 C4.04901734,15.2 3.68277457,14.8204222 3.68277457,14.25 C3.68277457,13.6795778 4.04901734,13.3 4.5983815,13.3 L7.34520231,13.3 C7.89456647,13.3 8.26080925,13.6795778 8.26080925,14.25 C8.26080925,14.8204222 7.89456647,15.2 7.34520231,15.2 Z M16.5016786,15.2 L14.6700578,15.2 C14.1202867,15.2 13.7544509,14.8204222 13.7544509,14.25 C13.7544509,13.6795778 14.1202867,13.3 14.6700578,13.3 L16.5016786,13.3 C17.0506358,13.3 17.4164717,13.6795778 17.4164717,14.25 C17.4164717,14.8204222 17.0502289,15.2 16.5016786,15.2 Z M4.5983815,15.2 C2.03468208,15.2 0.0203468208,13.11 0.0203468208,10.45 C0.0203468208,7.79 2.03468208,5.7 4.5983815,5.7 C5.14774566,5.7 5.51398844,6.08 5.51398844,6.65 C5.51398844,7.22 5.14774566,7.6 4.5983815,7.6 C3.04184971,7.6 1.85156069,8.835 1.85156069,10.45 C1.85156069,12.0654222 3.04184971,13.3 4.5983815,13.3 C5.14774566,13.3 5.51398844,13.6795778 5.51398844,14.25 C5.51398844,14.8204222 5.14774566,15.2 4.5983815,15.2 Z M11.0076301,19 C10.4586728,19 10.0920231,18.62 10.0920231,18.05 L10.0920231,8.55 C10.0920231,7.98 10.4582659,7.59957778 11.0076301,7.59957778 C11.5574012,7.59957778 11.9236439,7.98 11.9236439,8.55 L11.9236439,18.05 C11.9236439,18.62 11.5569942,19 11.0076301,19 Z M8.26080925,12.35 C7.98612717,12.35 7.80300578,12.2545778 7.61988439,12.0654222 C7.25364162,11.685 7.25364162,11.1154222 7.61988439,10.7358444 L10.3667052,7.88542222 C10.732948,7.50542222 11.2827191,7.50542222 11.648148,7.88542222 C12.0147977,8.265 12.0147977,8.83542222 11.648148,9.21542222 L8.9017341,12.0654222 C8.71861272,12.2545778 8.53549133,12.35 8.26080925,12.35 L8.26080925,12.35 Z M13.7544509,12.35 C13.4797688,12.35 13.2962405,12.2545778 13.1131191,12.0654222 L10.3667052,9.215 C10.0004624,8.835 10.0004624,8.265 10.3667052,7.885 C10.732948,7.505 11.2827191,7.505 11.648148,7.885 L14.3957827,10.7354222 C14.7616185,11.115 14.7616185,11.6845778 14.3957827,12.065 C14.2130682,12.2545778 14.0295399,12.35 13.7544509,12.35 Z" id="Shape"></path>
        </g>
    </g>
</svg>