<?xml version="1.0" encoding="UTF-8"?>
<svg width="20px" height="14px" viewBox="0 0 20 14" version="1.1" xmlns="http://www.w3.org/2000/svg" xmlns:xlink="http://www.w3.org/1999/xlink">
    <!-- Generator: Sketch 48.1 (47250) - http://www.bohemiancoding.com/sketch -->
    <title>查看 copy 8</title>
    <desc>Created with Sketch.</desc>
    <defs></defs>
    <g id="A-1-1-暂无数据" stroke="none" stroke-width="1" fill="none" fill-rule="evenodd" transform="translate(-1049.000000, -587.000000)">
        <g id="查看-copy-8" transform="translate(1049.000000, 587.000000)" fill="#898989" fill-rule="nonzero">
            <path d="M9.99997714,0 C2.85713306,0 0,7 0,7 C0,7 2.85713306,14 9.99997714,14 C17.1428441,14 20,7 20,7 C20,7 17.1428441,0 9.99997714,0 Z M9.99997714,11.1999686 C7.6339256,11.1999686 5.71428898,9.32013863 5.71428898,7 C5.71428898,4.67986137 7.6339256,2.80000896 9.99997714,2.80000896 C12.3660744,2.80000896 14.285711,4.67986137 14.285711,7 C14.285711,9.32013863 12.3660744,11.1999686 9.99997714,11.1999686 Z" id="Shape"></path>
            <path d="M12,7.00001067 C12,8.10419612 11.1041582,9 9.99997866,9 C8.89584177,9 8,8.10419612 8,7.00001067 C8,5.89584655 8.89584177,5 9.99997866,5 C11.1041582,4.99997866 12,5.89582522 12,7.00001067 Z" id="Shape"></path>
        </g>
    </g>
</svg>